<svg width="144" height="49" viewBox="0 0 144 49" fill="none" xmlns="http://www.w3.org/2000/svg">
<path d="M103.739 42.4756C103.739 43.1919 103.849 43.8492 104.068 44.4485C104.302 45.033 104.623 45.5296 105.033 45.9391C105.456 46.3481 105.96 46.6697 106.545 46.9032C107.13 47.1225 107.787 47.2323 108.518 47.2323C109.658 47.2323 110.636 46.9546 111.455 46.3991C112.288 45.844 112.836 45.0839 113.099 44.1198H114.414C114.092 45.4934 113.413 46.5745 112.375 47.3636C111.353 48.1527 110.067 48.5474 108.518 48.5474C107.597 48.5474 106.764 48.401 106.019 48.1089C105.274 47.8169 104.631 47.4074 104.09 46.8813C103.564 46.341 103.155 45.6979 102.863 44.9526C102.57 44.2073 102.424 43.3816 102.424 42.4756C102.424 41.5699 102.57 40.7443 102.863 39.999C103.155 39.2536 103.564 38.6182 104.09 38.0921C104.631 37.5514 105.274 37.1347 106.019 36.8427C106.764 36.5502 107.597 36.4042 108.518 36.4042C110.067 36.4042 111.353 36.7989 112.375 37.588C113.413 38.377 114.092 39.4582 114.414 40.8318H113.099C112.836 39.8672 112.295 39.1076 111.477 38.5521C110.659 37.997 109.672 37.7193 108.518 37.7193C107.787 37.7193 107.13 37.8363 106.545 38.0698C105.96 38.2891 105.456 38.6035 105.033 39.0125C104.623 39.4216 104.302 39.9186 104.068 40.5031C103.849 41.0877 103.739 41.745 103.739 42.4756ZM117.487 32.6999V44.2949C117.487 46.1508 118.502 47.0787 120.534 47.0787V48.3501H120.03C119.445 48.3501 118.911 48.255 118.429 48.0652C117.962 47.8749 117.56 47.6048 117.224 47.2542C116.888 46.9032 116.625 46.487 116.435 46.0047C116.259 45.5077 116.172 44.9598 116.172 44.3609V32.6999H117.487ZM130.293 36.6453V43.5277C130.293 44.2877 130.183 44.9817 129.964 45.61C129.76 46.224 129.468 46.75 129.088 47.1881C128.708 47.6266 128.247 47.97 127.706 48.2183C127.166 48.4523 126.567 48.5693 125.909 48.5693C125.237 48.5693 124.623 48.4523 124.068 48.2183C123.513 47.97 123.038 47.6266 122.643 47.1881C122.249 46.75 121.942 46.224 121.723 45.61C121.518 44.9817 121.416 44.2877 121.416 43.5277V36.6453H122.731V43.6375C122.731 44.7334 123.016 45.61 123.586 46.2678C124.156 46.9251 124.915 47.2542 125.865 47.2542C126.333 47.2542 126.757 47.1662 127.137 46.9912C127.517 46.8157 127.845 46.5745 128.123 46.2678C128.401 45.9462 128.613 45.5662 128.759 45.1281C128.905 44.6749 128.978 44.1783 128.978 43.6375V36.6453H130.293ZM131.835 32.6999H133.15V38.4865C133.691 37.8291 134.363 37.3174 135.167 36.9521C135.985 36.5868 136.906 36.4042 137.929 36.4042C138.835 36.4042 139.66 36.5502 140.406 36.8427C141.151 37.1347 141.786 37.5514 142.312 38.0921C142.853 38.6182 143.269 39.2536 143.562 39.999C143.854 40.7443 144 41.5771 144 42.4975C144 43.4035 143.854 44.2292 143.562 44.9745C143.269 45.7198 142.853 46.3629 142.312 46.9032C141.786 47.4293 141.151 47.8387 140.406 48.1308C139.66 48.4233 138.835 48.5693 137.929 48.5693C137.008 48.5693 136.175 48.4233 135.43 48.1308C134.685 47.8387 134.042 47.4293 133.501 46.9032C132.975 46.3629 132.566 45.7198 132.273 44.9745C131.981 44.2292 131.835 43.4035 131.835 42.4975V32.6999ZM133.15 42.4975C133.15 43.2137 133.26 43.8711 133.479 44.4704C133.713 45.0549 134.034 45.5519 134.444 45.961C134.867 46.37 135.372 46.6915 135.956 46.9251C136.54 47.1444 137.198 47.2542 137.929 47.2542C138.659 47.2542 139.317 47.1444 139.901 46.9251C140.486 46.7063 140.983 46.3919 141.392 45.9828C141.815 45.5591 142.137 45.0549 142.356 44.4704C142.575 43.8858 142.685 43.2285 142.685 42.4975C142.685 41.7669 142.568 41.1095 142.334 40.525C142.115 39.9405 141.801 39.4434 141.392 39.0344C140.983 38.6106 140.486 38.2891 139.901 38.0698C139.317 37.8363 138.659 37.7193 137.929 37.7193C137.198 37.7193 136.54 37.8363 135.956 38.0698C135.372 38.2891 134.867 38.6106 134.444 39.0344C134.034 39.4434 133.713 39.9405 133.479 40.525C133.26 41.1095 133.15 41.7669 133.15 42.4975Z" fill="#0A192F"/>
<path d="M128.254 0C130.935 0 133.248 0.427421 135.19 1.28223C137.133 2.13703 138.726 3.28324 139.969 4.7207C141.251 6.1194 142.184 7.73164 142.767 9.55762C143.388 11.3449 143.699 13.1909 143.699 15.0947C143.699 16.9986 143.388 18.8642 142.767 20.6904C142.184 22.4777 141.251 24.0899 139.969 25.5273C138.726 26.9261 137.133 28.0535 135.19 28.9082C133.248 29.7629 130.935 30.1904 128.254 30.1904C125.574 30.1904 123.262 29.7628 121.319 28.9082C119.376 28.0535 117.764 26.9262 116.481 25.5273C115.238 24.0899 114.305 22.4777 113.684 20.6904C113.101 18.8642 112.81 16.9986 112.81 15.0947C112.81 13.1909 113.101 11.3449 113.684 9.55762C114.305 7.73161 115.238 6.11941 116.481 4.7207C117.764 3.28308 119.376 2.13707 121.319 1.28223C123.262 0.427543 125.573 3.73616e-05 128.254 0ZM15.5615 0.174805C17.3875 0.174833 19.136 0.446323 20.8066 0.990234C22.5162 1.49531 24.0315 2.31169 25.3525 3.43848C26.7125 4.52643 27.7815 5.94486 28.5586 7.69336C29.3745 9.40291 29.7822 11.4622 29.7822 13.8711V29.7822H22.7881V28.1504C21.6614 28.8885 20.4184 29.4136 19.0586 29.7246C17.7375 29.9965 16.4158 30.1318 15.0947 30.1318C12.5694 30.1318 10.3549 29.7046 8.45117 28.8496C6.54722 27.9949 4.97286 26.8686 3.72949 25.4697C2.48621 24.071 1.5543 22.4776 0.932617 20.6904C0.310931 18.9031 1.16118e-06 17.0572 0 15.1533C0 12.7054 0.446169 10.5487 1.33984 8.68359C2.27237 6.77972 3.45786 5.20624 4.89551 3.96289C6.372 2.71955 8.04316 1.78673 9.9082 1.16504C11.7731 0.504643 13.6578 0.174805 15.5615 0.174805ZM60.1934 0.174805C63.9624 0.174805 66.8376 1.39879 68.8193 3.84668C70.8396 6.25565 71.8496 9.63578 71.8496 13.9873V29.7246H64.8555V12.1807C64.8554 10.238 64.3706 8.81945 63.3994 7.92578C62.4281 7.03213 61.3591 6.58594 60.1934 6.58594C58.9891 6.58595 57.9009 7.03236 56.9297 7.92578C55.9584 8.81944 55.4727 10.238 55.4727 12.1807L55.4727 29.7246L48.5371 29.7246L48.5371 12.1807C48.5371 10.238 48.0513 8.81945 47.0801 7.92578C46.1088 7.03213 45.0397 6.58594 43.874 6.58594C42.6698 6.58597 41.5815 7.03233 40.6104 7.92578C39.639 8.81944 39.1534 10.238 39.1533 12.1807L39.1533 29.7246L32.1592 29.7246L32.1592 13.9873C32.1592 9.63591 33.1693 6.25564 35.1895 3.84668C37.2099 1.39882 40.105 0.174834 43.874 0.174805C47.332 0.174805 50.0525 1.22405 52.0342 3.32227C54.0546 1.22406 56.7741 0.174815 60.1934 0.174805ZM81.1562 29.7246L74.1631 29.7246V0.582031L81.1562 0.582031V29.7246ZM97.0176 0.174805C101.33 0.174807 104.652 1.39883 106.983 3.84668C109.315 6.25566 110.48 9.63566 110.48 13.9873V29.7246H103.486V12.9971C103.486 11.0543 102.884 9.49962 101.68 8.33398C101.341 8.00626 100.974 7.7258 100.58 7.49023V6.19727C100.879 6.19221 101.051 6.16913 101.166 6.05371C101.311 5.90778 101.312 5.67256 101.312 5.20313V3.63672L92.626 3.63672V5.3457C92.626 5.74796 92.6262 5.94914 92.751 6.07422C92.8659 6.18887 93.0446 6.19745 93.3838 6.19824V7.53223C93.0164 7.75895 92.673 8.02575 92.3545 8.33398C91.1501 9.49962 90.5479 11.0543 90.5479 12.9971V29.7246H83.5537V13.9873C83.5538 9.63579 84.7195 6.25565 87.0508 3.84668C89.3822 1.39879 92.7044 0.174805 97.0176 0.174805ZM128.254 6.41113C126.389 6.41119 124.815 6.83856 123.533 7.69336C122.29 8.54809 121.338 9.61637 120.678 10.8984C120.056 12.1806 119.745 13.5795 119.745 15.0947C119.784 16.61 120.114 18.0088 120.736 19.291C121.358 20.5732 122.29 21.6423 123.533 22.4971C124.815 23.3518 126.389 23.7792 128.254 23.7793C130.119 23.7793 131.673 23.3518 132.917 22.4971C134.199 21.6423 135.151 20.5732 135.772 19.291C136.394 18.0088 136.705 16.61 136.705 15.0947C136.705 13.5795 136.394 12.1806 135.772 10.8984C135.151 9.61635 134.199 8.54808 132.917 7.69336C131.673 6.83851 130.119 6.41113 128.254 6.41113ZM15.3867 6.70215C14.3378 6.70215 13.3079 6.877 12.2979 7.22656C11.3265 7.57628 10.4322 8.10139 9.61621 8.80078C8.83931 9.50004 8.19841 10.374 7.69336 11.4229C7.22715 12.4719 6.9932 13.696 6.99316 15.0947C6.99316 16.1438 7.16884 17.1931 7.51855 18.2422C7.90703 19.2523 8.46987 20.1656 9.20801 20.9814C9.94614 21.7973 10.8595 22.4578 11.9473 22.9629C13.0741 23.468 14.3761 23.7207 15.8525 23.7207C17.0571 23.7207 18.1063 23.4878 19 23.0215C19.8936 22.5164 20.6321 21.8756 21.2148 21.0986C21.8365 20.2827 22.3024 19.3686 22.6133 18.3584C22.924 17.3095 23.08 16.2607 23.0801 15.2119C23.1189 13.7743 22.9245 12.5305 22.4971 11.4814C22.0697 10.4323 21.4863 9.55779 20.748 8.8584C20.0488 8.15924 19.2331 7.63481 18.3008 7.28516C17.3684 6.89664 16.3969 6.70219 15.3867 6.70215ZM93.2666 2.85352C93.0678 2.85352 92.9679 2.85331 92.8896 2.88574C92.7849 2.92908 92.7016 3.01262 92.6582 3.11719C92.6259 3.19566 92.626 3.29544 92.626 3.49414L101.312 3.49414C101.312 3.36187 101.311 3.29497 101.299 3.24023C101.256 3.05391 101.11 2.90784 100.924 2.86523C100.869 2.85284 100.803 2.85352 100.671 2.85352L93.2666 2.85352Z" fill="#0A192F"/>
</svg>
