<svg width="165" height="56" viewBox="0 0 165 56" fill="none" xmlns="http://www.w3.org/2000/svg">
<path d="M118.868 48.67C118.868 49.4907 118.994 50.2439 119.245 50.9306C119.513 51.6004 119.881 52.1694 120.35 52.6386C120.835 53.1073 121.413 53.4757 122.083 53.7433C122.753 53.9946 123.506 54.1204 124.343 54.1204C125.649 54.1204 126.771 53.8022 127.709 53.1657C128.663 52.5296 129.291 51.6587 129.592 50.554H131.099C130.731 52.1279 129.952 53.3667 128.763 54.2709C127.592 55.175 126.118 55.6273 124.343 55.6273C123.288 55.6273 122.334 55.4595 121.48 55.1249C120.626 54.7902 119.889 54.321 119.27 53.7183C118.667 53.0991 118.198 52.3623 117.863 51.5083C117.528 50.6543 117.361 49.7082 117.361 48.67C117.361 47.6323 117.528 46.6862 117.863 45.8322C118.198 44.9782 118.667 44.2501 119.27 43.6473C119.889 43.0277 120.626 42.5503 121.48 42.2156C122.334 41.8805 123.288 41.7132 124.343 41.7132C126.118 41.7132 127.592 42.1655 128.763 43.0696C129.952 43.9738 130.731 45.2126 131.099 46.7865H129.592C129.291 45.6813 128.671 44.8109 127.734 44.1744C126.796 43.5383 125.666 43.2201 124.343 43.2201C123.506 43.2201 122.753 43.3541 122.083 43.6218C121.413 43.873 120.835 44.2332 120.35 44.7019C119.881 45.1706 119.513 45.7401 119.245 46.4099C118.994 47.0797 118.868 47.8329 118.868 48.67ZM134.62 37.4688V50.7546C134.62 52.8811 135.784 53.9444 138.111 53.9444V55.4012H137.534C136.864 55.4012 136.253 55.2922 135.7 55.0747C135.164 54.8568 134.704 54.5472 134.319 54.1455C133.934 53.7433 133.632 53.2664 133.415 52.7138C133.214 52.1443 133.113 51.5165 133.113 50.8303V37.4688H134.62ZM149.294 41.9895V49.8755C149.294 50.7464 149.169 51.5416 148.917 52.2615C148.683 52.9651 148.348 53.5678 147.913 54.0698C147.477 54.5723 146.95 54.9657 146.33 55.2502C145.711 55.5184 145.024 55.6524 144.271 55.6524C143.501 55.6524 142.798 55.5184 142.161 55.2502C141.525 54.9657 140.981 54.5723 140.529 54.0698C140.077 53.5678 139.725 52.9651 139.474 52.2615C139.239 51.5416 139.122 50.7464 139.122 49.8755V41.9895H140.629V50.0014C140.629 51.2571 140.956 52.2615 141.609 53.0152C142.262 53.7684 143.132 54.1455 144.221 54.1455C144.757 54.1455 145.242 54.0447 145.677 53.8441C146.113 53.643 146.489 53.3667 146.808 53.0152C147.126 52.6468 147.368 52.2114 147.536 51.7094C147.704 51.19 147.787 50.621 147.787 50.0014V41.9895H149.294ZM151.061 37.4688H152.568V44.0991C153.187 43.3459 153.958 42.7596 154.878 42.341C155.816 41.9224 156.871 41.7132 158.043 41.7132C159.081 41.7132 160.027 41.8805 160.881 42.2156C161.735 42.5503 162.464 43.0277 163.066 43.6473C163.686 44.2501 164.163 44.9782 164.498 45.8322C164.833 46.6862 165 47.6405 165 48.6951C165 49.7333 164.833 50.6794 164.498 51.5334C164.163 52.3874 163.686 53.1242 163.066 53.7433C162.464 54.3461 161.735 54.8153 160.881 55.1499C160.027 55.4851 159.081 55.6524 158.043 55.6524C156.988 55.6524 156.034 55.4851 155.18 55.1499C154.326 54.8153 153.589 54.3461 152.97 53.7433C152.367 53.1242 151.898 52.3874 151.563 51.5334C151.229 50.6794 151.061 49.7333 151.061 48.6951V37.4688ZM152.568 48.6951C152.568 49.5158 152.694 50.269 152.945 50.9557C153.212 51.6255 153.581 52.195 154.05 52.6637C154.536 53.1324 155.113 53.5008 155.783 53.7684C156.452 54.0196 157.206 54.1455 158.043 54.1455C158.88 54.1455 159.634 54.0196 160.304 53.7684C160.973 53.5177 161.543 53.1575 162.011 52.6887C162.497 52.2032 162.865 51.6255 163.116 50.9557C163.368 50.2859 163.493 49.5327 163.493 48.6951C163.493 47.858 163.359 47.1048 163.091 46.435C162.84 45.7652 162.48 45.1957 162.011 44.727C161.543 44.2414 160.973 43.873 160.304 43.6218C159.634 43.3541 158.88 43.2201 158.043 43.2201C157.206 43.2201 156.452 43.3541 155.783 43.6218C155.113 43.873 154.536 44.2414 154.05 44.727C153.581 45.1957 153.212 45.7652 152.945 46.435C152.694 47.1048 152.568 47.858 152.568 48.6951Z" fill="white"/>
<path d="M146.958 0C150.03 5.20365e-06 152.679 0.489336 154.905 1.46875C157.131 2.4482 158.956 3.76204 160.381 5.40918C161.85 7.01195 162.919 8.85972 163.587 10.9521C164.299 13.0002 164.655 15.1153 164.655 17.2969C164.655 19.4784 164.299 21.6156 163.587 23.708C162.919 25.7559 161.85 27.6039 160.381 29.251C158.956 30.8537 157.131 32.1447 154.905 33.124C152.679 34.1034 150.03 34.5937 146.958 34.5938C143.886 34.5938 141.237 34.1034 139.011 33.124C136.785 32.1447 134.937 30.8537 133.468 29.251C132.043 27.6039 130.975 25.7559 130.263 23.708C129.595 21.6156 129.261 19.4784 129.261 17.2969C129.261 15.1153 129.595 13.0002 130.263 10.9521C130.975 8.85978 132.043 7.01192 133.468 5.40918C134.937 3.76194 136.784 2.44826 139.011 1.46875C141.237 0.489285 143.886 0 146.958 0ZM17.8311 0.200195C19.9234 0.200243 21.9265 0.5125 23.8408 1.13574C25.7997 1.71449 27.5361 2.64928 29.0498 3.94043C30.608 5.18702 31.8322 6.81199 32.7227 8.81543C33.6576 10.7744 34.126 13.1342 34.126 15.8945L34.126 34.126H26.1113L26.1113 32.2559C24.8203 33.1016 23.396 33.7032 21.8379 34.0596C20.3241 34.3711 18.8096 34.5264 17.2959 34.5264C14.4024 34.5263 11.8649 34.0373 9.68359 33.0576C7.50204 32.0783 5.69811 30.7874 4.27344 29.1846C2.8488 27.5818 1.78071 25.7559 1.06836 23.708C0.35601 21.66 0 19.5448 0 17.3633C2.79964e-05 14.5585 0.511183 12.0872 1.53516 9.9502C2.60367 7.7687 3.96209 5.96567 5.60937 4.54102C7.30113 3.11642 9.21561 2.04829 11.3525 1.33594C13.4896 0.579109 15.6495 0.200195 17.8311 0.200195ZM68.9717 0.200195C73.2902 0.200215 76.5848 1.60253 78.8555 4.40723C81.1706 7.16759 82.3281 11.0419 82.3281 16.0283V34.0596H74.3145V13.958C74.3145 11.7319 73.7575 10.1061 72.6445 9.08203C71.5317 8.05822 70.3073 7.5469 68.9717 7.54688C67.5917 7.54688 66.3444 8.05814 65.2314 9.08203C64.1185 10.1061 63.5625 11.7319 63.5625 13.958L63.5625 34.0596H55.6152L55.6152 13.958C55.6152 11.7319 55.0583 10.1061 53.9453 9.08203C52.8324 8.05823 51.6081 7.54688 50.2725 7.54688C48.8924 7.54688 47.6451 8.05808 46.5322 9.08203C45.4192 10.1061 44.8633 11.7319 44.8633 13.958L44.8633 34.0596H36.8486L36.8486 16.0283C36.8486 11.0419 38.0061 7.16759 40.3213 4.40723C42.6364 1.60237 45.9537 0.200195 50.2725 0.200195C54.2348 0.200197 57.3513 1.40244 59.6221 3.80664C61.9372 1.40245 65.0537 0.200195 68.9717 0.200195ZM92.9922 34.0596H84.9785V0.667969L92.9922 0.667969V34.0596ZM111.166 0.200195C116.108 0.200212 119.915 1.60241 122.586 4.40723C125.257 7.16759 126.593 11.0419 126.593 16.0283V34.0596H118.578V14.8926C118.578 12.6666 117.889 10.8854 116.509 9.5498C116.121 9.17419 115.7 8.85299 115.248 8.58301V7.10059C115.591 7.09479 115.787 7.06874 115.919 6.93652C116.086 6.76933 116.086 6.50008 116.086 5.96191V4.16699L106.134 4.16699V6.125C106.134 6.58625 106.134 6.81662 106.277 6.95996C106.409 7.09131 106.613 7.10162 107.002 7.10254V8.63184C106.581 8.89151 106.188 9.19685 105.823 9.5498C104.443 10.8854 103.753 12.6665 103.753 14.8926V34.0596H95.7393V16.0283C95.7393 11.0419 97.0747 7.16759 99.7461 4.40723C102.418 1.60262 106.224 0.200195 111.166 0.200195ZM146.958 7.3457C144.821 7.3457 143.018 7.83599 141.549 8.81543C140.124 9.79487 139.033 11.0191 138.276 12.4883C137.564 13.9575 137.208 15.5605 137.208 17.2969C137.253 19.0332 137.631 20.6363 138.344 22.1055C139.056 23.5744 140.125 24.799 141.549 25.7783C143.018 26.7577 144.821 27.2471 146.958 27.2471C149.095 27.2471 150.876 26.7577 152.301 25.7783C153.77 24.7989 154.861 23.5745 155.573 22.1055C156.285 20.6363 156.642 19.0332 156.642 17.2969C156.642 15.5605 156.285 13.9575 155.573 12.4883C154.861 11.019 153.77 9.79489 152.301 8.81543C150.876 7.83592 149.095 7.34571 146.958 7.3457ZM17.6299 7.67969C16.4279 7.67972 15.2483 7.88062 14.0908 8.28125C12.9778 8.68197 11.9535 9.2826 11.0186 10.084C10.1281 10.8854 9.39325 11.8877 8.81445 13.0898C8.28037 14.2918 8.01367 15.6943 8.01367 17.2969C8.01369 18.4989 8.21356 19.7013 8.61426 20.9033C9.05943 22.0608 9.70586 23.1071 10.5518 24.042C11.3976 24.9768 12.444 25.7338 13.6904 26.3125C14.9814 26.8911 16.4726 27.1806 18.1641 27.1807C19.5442 27.1807 20.7465 26.9132 21.7705 26.3789C22.7944 25.8002 23.6408 25.0661 24.3086 24.1758C25.021 23.2408 25.5549 22.1937 25.9111 21.0361C26.2672 19.8343 26.4453 18.6325 26.4453 17.4307C26.4898 15.7833 26.2671 14.3584 25.7773 13.1563C25.2877 11.9543 24.6201 10.9527 23.7744 10.1514C22.9731 9.35005 22.0381 8.74837 20.9697 8.34766C19.9012 7.90243 18.7875 7.67969 17.6299 7.67969ZM106.868 3.26953C106.64 3.26953 106.526 3.2696 106.437 3.30664C106.317 3.35627 106.221 3.45152 106.171 3.57129C106.134 3.66127 106.134 3.77588 106.134 4.00391L116.086 4.00391C116.086 3.85252 116.085 3.77654 116.071 3.71387C116.023 3.50006 115.855 3.33303 115.642 3.28418C115.579 3.26997 115.503 3.26953 115.352 3.26953L106.868 3.26953Z" fill="white"/>
</svg>
